<svg xmlns="http://www.w3.org/2000/svg" width="512" height="512" viewBox="0 0 438.529 438.529"><path d="M349.46 52.534c-10.664-10.657-23.606-15.987-38.835-15.987-15.222 0-28.165 5.327-38.825 15.987-10.656 10.657-15.984 23.598-15.984 38.828 0 9.897 2.467 19.08 7.416 27.55 4.948 8.47 11.604 15.086 19.985 19.842 0 9.897-.805 18.608-2.42 26.125-1.622 7.516-4.284 14.127-7.994 19.84-3.72 5.712-7.566 10.562-11.566 14.56-4 4-9.616 7.756-16.848 11.28-7.232 3.52-13.946 6.467-20.13 8.85-6.184 2.375-14.514 5.182-24.982 8.42-19.036 5.902-33.69 11.322-43.968 16.274V102.206c8.375-4.755 15.037-11.37 19.985-19.84 4.947-8.47 7.42-17.655 7.42-27.552 0-15.225-5.326-28.17-15.986-38.826C156.072 5.332 143.13 0 127.902 0c-15.23 0-28.17 5.328-38.83 15.988-10.657 10.657-15.988 23.6-15.988 38.826 0 9.897 2.474 19.082 7.42 27.552 4.95 8.47 11.61 15.085 19.986 19.84v234.117c-8.375 4.753-15.036 11.375-19.984 19.842-4.947 8.473-7.42 17.658-7.42 27.552 0 15.225 5.326 28.168 15.986 38.824s23.604 15.99 38.83 15.99c15.227 0 28.17-5.333 38.827-15.99 10.656-10.655 15.986-23.6 15.986-38.823 0-9.894-2.474-19.08-7.42-27.552-4.95-8.467-11.61-15.09-19.986-19.842V328.9c0-13.13 3.95-22.645 11.847-28.544 7.898-5.907 24.03-12.662 48.395-20.273 25.7-8.186 45.02-15.9 57.963-23.134 42.633-24.168 64.142-63.57 64.52-118.197 8.382-4.755 15.038-11.372 19.986-19.842 4.946-8.47 7.424-17.652 7.424-27.55.003-15.225-5.328-28.166-15.985-38.826zM147.32 403.138c-5.33 5.33-11.802 7.994-19.413 7.994-7.616 0-14.087-2.663-19.417-7.994-5.327-5.325-7.994-11.8-7.994-19.41 0-7.618 2.664-14.086 7.994-19.418 5.33-5.328 11.8-7.994 19.417-7.994 7.61 0 14.083 2.67 19.414 7.994 5.33 5.332 7.994 11.8 7.994 19.417 0 7.61-2.663 14.085-7.993 19.41zm0-328.906c-5.33 5.33-11.802 7.994-19.413 7.994-7.616 0-14.087-2.664-19.417-7.994-5.327-5.33-7.994-11.798-7.994-19.414 0-7.614 2.664-14.087 7.994-19.412 5.33-5.33 11.8-7.994 19.417-7.994 7.61 0 14.083 2.666 19.414 7.994 5.33 5.325 7.994 11.798 7.994 19.412 0 7.616-2.663 14.087-7.993 19.414zm182.722 36.547c-5.328 5.326-11.796 7.992-19.41 7.992-7.618 0-14.09-2.666-19.414-7.993-5.328-5.328-7.994-11.8-7.994-19.415 0-7.614 2.666-14.083 7.994-19.414s11.796-7.992 19.414-7.992c7.614 0 14.082 2.663 19.41 7.993 5.328 5.327 7.994 11.8 7.994 19.415 0 7.614-2.662 14.087-7.994 19.414z" fill="#006DF0"/></svg>